<?xml version="1.0" standalone="no"?><!DOCTYPE svg PUBLIC "-//W3C//DTD SVG 1.1//EN" "http://www.w3.org/Graphics/SVG/1.1/DTD/svg11.dtd"><svg t="1691924336264" class="icon" viewBox="0 0 1024 1024" version="1.1" xmlns="http://www.w3.org/2000/svg" p-id="5933" xmlns:xlink="http://www.w3.org/1999/xlink" width="200" height="200"><path d="M1006.942208 391.708672c-2.10944-5.599232-7.458816-9.310208-13.459456-9.310208L672.516096 382.398464 526.367744 42.118144c-2.251776-5.26336-7.45472-8.675328-13.205504-8.675328-0.021504 0-0.043008 0-0.043008 0-5.772288 0-10.975232 3.45088-13.2096 8.762368L356.626432 382.399488 32.821248 382.399488c-5.983232 0-11.355136 3.709952-13.459456 9.271296-2.10944 5.604352-0.54784 11.91936 3.959808 15.880192L290.67264 642.930688l-88.240128 314.625024c-1.600512 5.72928 0.504832 11.880448 5.28896 15.418368 4.780032 3.53792 11.246592 3.791872 16.303104 0.590848l289.137664-184.52992 289.133568 184.52992c2.359296 1.514496 5.056512 2.230272 7.7312 2.230272 2.989056 0 5.961728-0.927744 8.489984-2.7392 4.780032-3.493888 6.928384-9.560064 5.413888-15.29344l-84.93568-319.50848L1002.939392 407.59296C1007.468544 403.633152 1009.047552 397.313024 1006.942208 391.708672z" fill="#FF9000" p-id="5934"></path></svg>