<?xml version="1.0" standalone="no"?><!DOCTYPE svg PUBLIC "-//W3C//DTD SVG 1.1//EN" "http://www.w3.org/Graphics/SVG/1.1/DTD/svg11.dtd"><svg t="1690181660106" class="icon" viewBox="0 0 1024 1024" version="1.1" xmlns="http://www.w3.org/2000/svg" p-id="6573" xmlns:xlink="http://www.w3.org/1999/xlink" width="200" height="200"><path d="M424.801325 1023.935297a40.432026 40.432026 0 0 1-42.876352-42.718189v-127.219972a42.89073 42.89073 0 0 1 85.767082 0v127.219972a40.446404 40.446404 0 0 1-42.89073 42.718189z m171.562919 0a40.446404 40.446404 0 0 1-42.89073-42.718189v-127.219972a42.89073 42.89073 0 0 1 85.78146 0v127.219972a41.46727 41.46727 0 0 1-42.89073 42.718189z m127.694459 0H297.092487a40.432026 40.432026 0 0 1-42.89073-42.718189V768.546379a427.038108 427.038108 0 1 1 512.747676 0V981.217108a40.446404 40.446404 0 0 1-42.89073 42.718189zM339.983217 938.498919h341.184757V747.683338a53.86144 53.86144 0 0 1 17.153416-34.191805A339.329945 339.329945 0 1 0 169.369271 432.480328 324.692746 324.692746 0 0 0 322.815422 713.491533a37.585105 37.585105 0 0 1 17.153417 34.191805zM724.058703 598.608217a38.275267 38.275267 0 0 1-29.547586-12.336656l-127.708837-127.219973a42.373108 42.373108 0 0 1 60.044146-59.799713l127.708837 127.219972a41.165323 41.165323 0 0 1 0 59.799714 46.01084 46.01084 0 0 1-30.49656 12.336656z m-127.694459 0a38.260889 38.260889 0 0 1-29.547586-12.336656 41.165323 41.165323 0 0 1 0-59.799714l127.708838-127.219972a42.373108 42.373108 0 0 1 60.044146 59.799713l-127.708838 127.219973a46.01084 46.01084 0 0 1-30.49656 12.336656z m-171.562919 0a38.260889 38.260889 0 0 1-29.547587-12.336656l-127.708837-127.219973a42.373108 42.373108 0 0 1 60.044146-59.799713l127.708838 127.219972a41.165323 41.165323 0 0 1 0 59.799714 42.488135 42.488135 0 0 1-30.49656 12.336656z m-127.708838 0a38.275267 38.275267 0 0 1-29.547586-12.336656 41.179702 41.179702 0 0 1 0-59.799714l127.708837-127.219972a42.373108 42.373108 0 0 1 60.044147 59.799713l-127.708838 127.219973a42.473757 42.473757 0 0 1-30.49656 12.336656z" p-id="6574" fill="#263341"></path></svg>