<?xml version="1.0" standalone="no"?><!DOCTYPE svg PUBLIC "-//W3C//DTD SVG 1.1//EN" "http://www.w3.org/Graphics/SVG/1.1/DTD/svg11.dtd"><svg t="1690033179926" class="icon" viewBox="0 0 1024 1024" version="1.1" xmlns="http://www.w3.org/2000/svg" p-id="860" xmlns:xlink="http://www.w3.org/1999/xlink" width="200" height="200"><path d="M499.333371 795.759751L123.253489 643.999799a30.79999 30.79999 0 0 1 0-56.239983l375.999882-151.759952a31.07999 31.07999 0 0 1 25.199992 0l375.999883 151.759952a30.79999 30.79999 0 0 1 0 56.239983l-375.999883 151.759952a31.07999 31.07999 0 0 1-25.119992 0z" fill="#4285F5" p-id="861"></path><path d="M511.933367 916.839713a66.719979 66.719979 0 0 1-26.599991-5.519998L109.733493 759.999763a36.143989 36.143989 0 0 1 27.039991-67.03998L511.933367 843.999736 887.09325 692.639784a36.291989 36.291989 0 1 1 27.039992 67.359979l-375.599883 151.519952a66.719979 66.719979 0 0 1-26.599992 5.319998z" fill="#4285F5" p-id="862"></path><path d="M511.933367 1023.99968a66.719979 66.719979 0 0 1-26.599991-5.519998l-375.599883-151.519953A36.107989 36.107989 0 0 1 136.773484 799.99975l375.159883 151.279953L887.09325 799.99975a36.143989 36.143989 0 1 1 27.039992 67.039979l-375.599883 151.519953a66.719979 66.719979 0 0 1-26.599992 5.439998z" fill="#4285F5" p-id="863"></path><path d="M629.173331 634.999802h162.759949a7.999998 7.999998 0 0 0 7.999997-7.999998V269.119916a67.239979 67.239979 0 0 0-42.799986-62.639981l-125.239961-48.799984a7.999998 7.999998 0 0 0-10.999997 7.519997v461.719856a7.999998 7.999998 0 0 0 8.279998 8.079998zM539.333359 1.04L303.933432 92.719971a126.199961 126.199961 0 0 0-80.239975 117.559963V619.999806a15.119995 15.119995 0 0 0 15.159996 15.159996h305.959904a15.159995 15.159995 0 0 0 15.119995-15.159996V15.159995a15.159995 15.159995 0 0 0-20.599993-14.119995z m-63.99998 360.759887l-147.399954 85.239973a19.559994 19.559994 0 0 1-26.759992-7.199997 19.559994 19.559994 0 0 1 7.159998-26.719992l147.599954-85.359973a19.559994 19.559994 0 0 1 26.759991 7.159997 19.599994 19.599994 0 0 1-7.199997 26.879992z m0-91.719971L327.933425 355.319889A19.599994 19.599994 0 0 1 301.093433 347.999891a19.559994 19.559994 0 0 1 7.159998-26.719991L455.933385 235.999926a19.599994 19.599994 0 0 1 26.759991 7.159998 19.599994 19.599994 0 0 1-7.199997 26.919992z" fill="#00B6FF" p-id="864"></path></svg>